<svg width="16" height="16" viewBox="0 0 16 16" fill="none" xmlns="http://www.w3.org/2000/svg">
<path fill-rule="evenodd" clip-rule="evenodd" d="M8.01696 9.57029C7.87344 7.02548 9.36694 3.9333 13.0801 3.09082L14.5408 5.6875C14.0121 5.91408 13.4271 6.24612 12.9593 6.64761C14.0708 7.17696 14.8329 8.26336 14.8329 9.5176C14.8329 11.2923 13.307 12.731 11.4247 12.731C9.56107 12.731 8.0468 11.3207 8.01696 9.57029Z" fill="white"/>
<path fill-rule="evenodd" clip-rule="evenodd" d="M1.17711 9.57029C1.0336 7.02548 2.5271 3.9333 6.24029 3.09082L7.70092 5.6875C7.17222 5.91408 6.58727 6.24612 6.11947 6.64761C7.23092 7.17696 7.99305 8.26336 7.99305 9.5176C7.99305 11.2923 6.46715 12.731 4.58486 12.731C2.72123 12.731 1.20696 11.3207 1.17711 9.57029Z" fill="white"/>
<path fill-rule="evenodd" clip-rule="evenodd" d="M8.39004 5.78685L6.51921 2.46094L6.11791 2.55199C2.10592 3.46226 0.47391 6.82277 0.625318 9.59002C0.666914 11.6651 2.45339 13.2821 4.58458 13.2821C6.02733 13.2821 7.31245 12.5407 8.00484 11.418C8.69717 12.5408 9.9821 13.2821 11.4251 13.2821C13.5811 13.2821 15.3851 11.6265 15.3851 9.51692C15.3851 8.33958 14.819 7.29952 13.9466 6.61366C14.2125 6.45052 14.4917 6.30833 14.7585 6.194L15.3234 5.95192L13.3597 2.46098L12.9584 2.55203C10.744 3.05445 9.25466 4.3033 8.39004 5.78685ZM8.2417 6.05524L7.91801 6.19396C7.65124 6.30829 7.37206 6.45048 7.10614 6.61362C7.34636 6.80247 7.56335 7.01819 7.75169 7.25623C7.87496 6.84817 8.03772 6.44491 8.2417 6.05524ZM1.72776 9.53851C1.60209 7.31006 2.84778 4.62407 5.96662 3.72959L6.93088 5.44384C6.526 5.65816 6.11577 5.92267 5.75981 6.22817L5.11633 6.78044L5.88192 7.14507C6.82085 7.59225 7.44097 8.49637 7.44097 9.51688C7.44097 10.9567 6.19316 12.1785 4.58458 12.1785C2.99229 12.1785 1.75278 10.9806 1.72856 9.56017L1.72837 9.54933L1.72776 9.53851ZM8.56824 9.53855C8.44257 7.3101 9.68826 4.62412 12.8071 3.72964L13.7714 5.44388C13.3665 5.6582 12.9562 5.92271 12.6003 6.22822L11.9568 6.78049L12.7224 7.14511C13.6613 7.5923 14.2815 8.49642 14.2815 9.51692C14.2815 10.9567 13.0336 12.1785 11.4251 12.1785C9.83277 12.1785 8.59326 10.9807 8.56904 9.56021L8.56885 9.54937L8.56824 9.53855Z" fill="black"/>
</svg>
