<svg width="16" height="16" viewBox="0 0 16 16" fill="none" xmlns="http://www.w3.org/2000/svg">
<path fill-rule="evenodd" clip-rule="evenodd" d="M8.0172 9.57029C7.87368 7.02548 9.36719 3.9333 13.0804 3.09082L14.541 5.6875C14.0123 5.91408 13.4274 6.24612 12.9596 6.64761C14.071 7.17696 14.8331 8.26336 14.8331 9.5176C14.8331 11.2923 13.3072 12.731 11.4249 12.731C9.56132 12.731 8.04705 11.3207 8.0172 9.57029Z" fill="white"/>
<path fill-rule="evenodd" clip-rule="evenodd" d="M1.17736 9.57029C1.03384 7.02548 2.52734 3.9333 6.24053 3.09082L7.70117 5.6875C7.17246 5.91408 6.58751 6.24612 6.11971 6.64761C7.23116 7.17696 7.9933 8.26336 7.9933 9.5176C7.9933 11.2923 6.4674 12.731 4.5851 12.731C2.72147 12.731 1.20721 11.3207 1.17736 9.57029Z" fill="white"/>
<path fill-rule="evenodd" clip-rule="evenodd" d="M8.39053 5.78685L6.5197 2.46094L6.1184 2.55199C2.1064 3.46226 0.474398 6.82277 0.625806 9.59002C0.667403 11.6651 2.45388 13.2821 4.58507 13.2821C6.02782 13.2821 7.31294 12.5407 8.00533 11.418C8.69765 12.5408 9.98259 13.2821 11.4255 13.2821C13.5816 13.2821 15.3855 11.6265 15.3855 9.51692C15.3855 8.33958 14.8195 7.29952 13.9471 6.61366C14.213 6.45052 14.4922 6.30833 14.759 6.194L15.3238 5.95192L13.3602 2.46098L12.9589 2.55203C10.7445 3.05445 9.25515 4.3033 8.39053 5.78685ZM8.24218 6.05524L7.9185 6.19396C7.65173 6.30829 7.37255 6.45048 7.10663 6.61362C7.34685 6.80247 7.56384 7.01819 7.75218 7.25623C7.87545 6.84817 8.03821 6.44491 8.24218 6.05524ZM1.72825 9.53851C1.60258 7.31006 2.84827 4.62407 5.96711 3.72959L6.93137 5.44384C6.52648 5.65816 6.11626 5.92267 5.7603 6.22817L5.11682 6.78044L5.88241 7.14507C6.82134 7.59225 7.44146 8.49637 7.44146 9.51688C7.44146 10.9567 6.19365 12.1785 4.58507 12.1785C2.99278 12.1785 1.75327 10.9806 1.72905 9.56017L1.72886 9.54933L1.72825 9.53851ZM8.56873 9.53855C8.44306 7.3101 9.68875 4.62412 12.8076 3.72964L13.7718 5.44388C13.367 5.6582 12.9567 5.92271 12.6008 6.22822L11.9573 6.78049L12.7229 7.14511C13.6618 7.5923 14.2819 8.49642 14.2819 9.51692C14.2819 10.9567 13.0341 12.1785 11.4255 12.1785C9.83326 12.1785 8.59375 10.9807 8.56953 9.56021L8.56934 9.54937L8.56873 9.53855Z" fill="black"/>
</svg>
