<svg width="32" height="32" viewBox="0 0 32 32" fill="none" xmlns="http://www.w3.org/2000/svg">
<path d="M22.517 28H9.483C6.46483 28 4 25.5296 4 22.517V9.483C4 6.47042 6.47042 4 9.483 4H22.517C25.5352 4 28 6.47042 28 9.483V22.517C28 25.5352 25.5352 28 22.517 28Z" fill="#8D8F96"/>
<path d="M21.7066 8.8125H10.2153C8.5888 8.8125 7.26416 10.1427 7.26416 11.7636V18.9066C7.26416 20.533 8.59439 21.8577 10.2153 21.8577H14.273L14.9717 23.0649L15.6591 24.2554C15.7821 24.4734 16.0951 24.4734 16.2236 24.2554L16.9111 23.0649L17.6098 21.8577H21.7122C23.3387 21.8577 24.6633 20.5275 24.6633 18.9066V11.7692C24.6633 10.1427 23.3331 8.8125 21.7066 8.8125Z" fill="white"/>
<path d="M16.7664 14.0439C15.8777 14.0439 15.1567 14.7538 15.1567 15.6313C15.1567 16.5088 15.8777 17.2186 16.7664 17.2186C17.6551 17.2186 18.3761 16.5088 18.3761 15.6313C18.3761 14.7538 17.6607 14.0439 16.7664 14.0439ZM16.7664 16.3914C16.3416 16.3914 15.9951 16.0505 15.9951 15.6313C15.9951 15.2121 16.3416 14.8711 16.7664 14.8711C17.1912 14.8711 17.5377 15.2121 17.5377 15.6313C17.5377 16.0505 17.1968 16.3914 16.7664 16.3914Z" fill="#8D8F96"/>
<path d="M11.6744 14.0429C11.3279 14.0429 11.0037 14.1771 10.7522 14.4062V13.0928H9.85791V17.1449H10.7522V16.8599C11.0037 17.0835 11.3223 17.2232 11.6744 17.2232C12.4737 17.2232 13.122 16.5134 13.122 15.6359C13.122 14.7584 12.4792 14.0429 11.6744 14.0429ZM11.4955 16.4239C11.1658 16.4239 10.8807 16.2283 10.7578 15.9433C10.7186 15.8483 10.6907 15.7421 10.6907 15.6303C10.6907 15.5185 10.7131 15.4123 10.7578 15.3173C10.8807 15.0322 11.1658 14.8366 11.4955 14.8366C11.9427 14.8366 12.3004 15.1887 12.3004 15.6303C12.3004 16.0718 11.9427 16.4239 11.4955 16.4239Z" fill="#8D8F96"/>
<path d="M21.1649 14.1103V14.3618C20.9134 14.1662 20.6004 14.0488 20.265 14.0488C19.4434 14.0488 18.7783 14.7363 18.7783 15.5803C18.7783 16.4242 19.4434 17.1117 20.265 17.1117C20.606 17.1117 20.919 16.9943 21.1649 16.7987V17.2235C21.1649 17.2235 21.0755 17.6427 20.4495 17.6427V18.4308C20.4495 18.4308 21.1258 18.509 21.7294 17.9054C21.7294 17.9054 22.0089 17.6091 22.0704 17.2179V14.1103H21.1649ZM20.4327 16.3572C19.98 16.3572 19.6167 16.005 19.6167 15.5747C19.6167 15.1443 19.9856 14.7922 20.4327 14.7922C20.7513 14.7922 21.0308 14.971 21.1649 15.2281C21.2208 15.3343 21.2487 15.4517 21.2487 15.5747C21.2487 15.6976 21.2152 15.8206 21.1649 15.9212C21.0308 16.1839 20.7513 16.3572 20.4327 16.3572Z" fill="#8D8F96"/>
<path d="M13.2227 13.0149V13.8253C13.2227 13.8253 13.6363 13.8812 13.7145 14.2836V17.1453H14.6367V14.2836V14.2613C14.5808 13.8589 14.3405 13.557 14.3405 13.557C13.8151 12.9366 13.2227 13.0149 13.2227 13.0149Z" fill="#8D8F96"/>
</svg>
