<svg width="150" height="50" viewBox="0 0 150 50" fill="none" xmlns="http://www.w3.org/2000/svg">
<path d="M34.7864 5H43.5525L28.774 42.4028H19.7785L5 5H14.4545L24.6434 32.5358L34.7864 5Z" fill="black"/>
<path fill-rule="evenodd" clip-rule="evenodd" d="M75.0603 28.4781C75.0603 20.3656 68.0415 14.4863 58.2692 14.4863C48.4968 14.4863 41.478 20.3656 41.478 28.4781C41.478 36.5906 48.4968 42.4699 58.2692 42.4699C68.0415 42.4699 75.0603 36.5906 75.0603 28.4781ZM58.2686 35.7565C62.9054 35.7565 66.6642 32.4991 66.6642 28.4808C66.6642 24.4625 62.9054 21.2051 58.2686 21.2051C53.6319 21.2051 49.873 24.4625 49.873 28.4808C49.873 32.4991 53.6319 35.7565 58.2686 35.7565Z" fill="black"/>
<path fill-rule="evenodd" clip-rule="evenodd" d="M112.002 28.5103C112.002 20.3978 104.983 14.5186 95.2106 14.5186C85.4382 14.5186 78.4194 20.3978 78.4194 28.5103C78.4194 36.6228 85.4382 42.5021 95.2106 42.5021C104.983 42.5021 112.002 36.6228 112.002 28.5103ZM95.21 35.7858C99.8468 35.7858 103.606 32.5284 103.606 28.5101C103.606 24.4918 99.8468 21.2344 95.21 21.2344C90.5733 21.2344 86.8145 24.4918 86.8145 28.5101C86.8145 32.5284 90.5733 35.7858 95.21 35.7858Z" fill="black"/>
<path d="M122.963 37.3559L123.146 28.6363L134.666 17.7137H143.203L132.142 28.9575L128.424 31.9865L122.963 37.3559ZM117.042 42.4042V8.35156H124.202V42.4042H117.042ZM135.446 42.4042L127.093 32.0324L131.591 26.4793L144.121 42.4042H135.446Z" fill="black"/>
</svg>
