<svg width="40" height="40" viewBox="0 0 40 40" fill="none" xmlns="http://www.w3.org/2000/svg">
<path fill-rule="evenodd" clip-rule="evenodd" d="M20.042 23.9243C19.6832 17.5622 23.417 9.83179 32.7 7.72559L36.3515 14.2173C35.0298 14.7837 33.5674 15.6138 32.3979 16.6176C35.1765 17.9409 37.0819 20.6569 37.0819 23.7925C37.0819 28.2293 33.2671 31.826 28.5614 31.826C23.9023 31.826 20.1166 28.3003 20.042 23.9243Z" fill="white"/>
<path fill-rule="evenodd" clip-rule="evenodd" d="M2.94242 23.9243C2.58362 17.5622 6.31738 9.83179 15.6004 7.72559L19.2519 14.2173C17.9302 14.7837 16.4678 15.6138 15.2983 16.6176C18.0769 17.9409 19.9823 20.6569 19.9823 23.7925C19.9823 28.2293 16.1675 31.826 11.4618 31.826C6.80271 31.826 3.01704 28.3003 2.94242 23.9243Z" fill="white"/>
<path fill-rule="evenodd" clip-rule="evenodd" d="M20.9744 14.4681L16.2973 6.15332L15.2941 6.38094C5.26406 8.65664 1.18404 17.0579 1.56256 23.976C1.66655 29.1636 6.13275 33.2061 11.4607 33.2061C15.0676 33.2061 18.2804 31.3527 20.0114 28.5459C21.7422 31.353 24.9546 33.2061 28.562 33.2061C33.952 33.2061 38.462 29.0672 38.462 23.7932C38.462 20.8498 37.0468 18.2497 34.8659 16.535C35.5306 16.1272 36.2286 15.7717 36.8955 15.4859L38.3077 14.8807L33.3985 6.15332L32.3953 6.38094C26.8593 7.637 23.1359 10.7592 20.9744 14.4681ZM20.6035 15.1391L19.7943 15.4859C19.1274 15.7717 18.4294 16.1272 17.7646 16.535C18.3652 17.0072 18.9076 17.5464 19.3785 18.1416C19.6867 17.1214 20.0936 16.1132 20.6035 15.1391ZM4.31868 23.8472C4.00449 18.2761 7.11872 11.5612 14.9158 9.32496L17.3265 13.6106C16.3143 14.1464 15.2887 14.8077 14.3988 15.5714L12.7901 16.9521L14.7041 17.8636C17.0514 18.9816 18.6017 21.2419 18.6017 23.7932C18.6017 27.3927 15.4822 30.4472 11.4607 30.4472C7.47999 30.4472 4.38122 27.4526 4.32066 23.9014L4.3202 23.8743L4.31868 23.8472ZM21.4199 23.8472C21.1057 18.2761 24.22 11.5612 32.017 9.32496L34.4277 13.6106C33.4155 14.1464 32.3899 14.8077 31.5 15.5714L29.8913 16.9521L31.8053 17.8636C34.1526 18.9816 35.7029 21.2419 35.7029 23.7932C35.7029 27.3927 32.5834 30.4472 28.562 30.4472C24.5812 30.4472 21.4825 27.4526 21.4219 23.9014L21.4214 23.8743L21.4199 23.8472Z" fill="black"/>
</svg>
