<svg width="32" height="32" viewBox="0 0 32 32" fill="none" xmlns="http://www.w3.org/2000/svg">
<path d="M16.007 6.16136C19.2152 6.16136 19.5951 6.17542 20.8568 6.23169C22.0293 6.28326 22.6625 6.48017 23.0846 6.64427C23.6428 6.85993 24.0461 7.12248 24.4636 7.53975C24.8857 7.96171 25.1436 8.36023 25.3594 8.91815C25.5236 9.34011 25.7205 9.97773 25.7721 11.1451C25.8284 12.411 25.8425 12.7908 25.8425 15.993C25.8425 19.1998 25.8284 19.5796 25.7721 20.8408C25.7205 22.0129 25.5236 22.6458 25.3594 23.0678C25.1436 23.6257 24.881 24.0289 24.4636 24.4462C24.0414 24.8681 23.6428 25.126 23.0846 25.3417C22.6625 25.5058 22.0246 25.7027 20.8568 25.7542C19.5904 25.8105 19.2105 25.8246 16.007 25.8246C12.7989 25.8246 12.419 25.8105 11.1573 25.7542C9.98476 25.7027 9.35157 25.5058 8.92945 25.3417C8.37131 25.126 7.96795 24.8635 7.55052 24.4462C7.1284 24.0242 6.87043 23.6257 6.65468 23.0678C6.49052 22.6458 6.29353 22.0082 6.24194 20.8408C6.18566 19.5749 6.17159 19.1952 6.17159 15.993C6.17159 12.7861 6.18566 12.4063 6.24194 11.1451C6.29353 9.97304 6.49052 9.34011 6.65468 8.91815C6.87043 8.36023 7.13309 7.95702 7.55052 7.53975C7.97264 7.1178 8.37131 6.85993 8.92945 6.64427C9.35157 6.48017 9.98945 6.28326 11.1573 6.23169C12.419 6.17542 12.7989 6.16136 16.007 6.16136ZM16.007 4C12.7473 4 12.3393 4.01407 11.0588 4.07033C9.78308 4.12659 8.906 4.33288 8.14618 4.62825C7.35353 4.93768 6.68282 5.34558 6.01681 6.01602C5.3461 6.68177 4.93805 7.35222 4.62849 8.13987C4.33301 8.90408 4.12664 9.77613 4.07035 11.0514C4.01407 12.336 4 12.7439 4 16.0023C4 19.2608 4.01407 19.6687 4.07035 20.9486C4.12664 22.2239 4.33301 23.1006 4.62849 23.8601C4.93805 24.6525 5.3461 25.3229 6.01681 25.9887C6.68282 26.6544 7.35353 27.067 8.14149 27.3718C8.906 27.6671 9.77839 27.8734 11.0541 27.9297C12.3346 27.9859 12.7426 28 16.0023 28C19.2621 28 19.6701 27.9859 20.9506 27.9297C22.2263 27.8734 23.1034 27.6671 23.8632 27.3718C24.6512 27.067 25.3219 26.6544 25.9879 25.9887C26.6539 25.3229 27.0666 24.6525 27.3715 23.8648C27.667 23.1006 27.8734 22.2286 27.9296 20.9533C27.9859 19.6734 28 19.2655 28 16.007C28 12.7486 27.9859 12.3407 27.9296 11.0608C27.8734 9.78551 27.667 8.90877 27.3715 8.14925C27.076 7.35222 26.668 6.68177 25.9973 6.01602C25.3313 5.35026 24.6605 4.93768 23.8726 4.63294C23.1081 4.33757 22.2357 4.13128 20.9599 4.07501C19.6748 4.01407 19.2668 4 16.007 4Z" fill="#8D8F96"/>
<path d="M16.007 9.83789C12.6019 9.83789 9.83936 12.5994 9.83936 16.0032C9.83936 19.4069 12.6019 22.1684 16.007 22.1684C19.4122 22.1684 22.1747 19.4069 22.1747 16.0032C22.1747 12.5994 19.4122 9.83789 16.007 9.83789ZM16.007 20.0024C13.7979 20.0024 12.0062 18.2114 12.0062 16.0032C12.0062 13.7949 13.7979 12.0039 16.007 12.0039C18.2161 12.0039 20.0078 13.7949 20.0078 16.0032C20.0078 18.2114 18.2161 20.0024 16.007 20.0024Z" fill="#8D8F96"/>
<path d="M23.8583 9.59364C23.8583 10.3907 23.2111 11.033 22.4184 11.033C21.6211 11.033 20.9785 10.386 20.9785 9.59364C20.9785 8.79661 21.6258 8.1543 22.4184 8.1543C23.2111 8.1543 23.8583 8.8013 23.8583 9.59364Z" fill="#8D8F96"/>
</svg>
